PathFileType	4	(X/Y/Z)	..\data\2015007\dynamic\2015007_C4_04.trc
DataRate	CameraRate	NumFrames	NumMarkers	Units	OrigDataRate	OrigDataStartFrame	OrigNumFrames
100.000000	100.000000	4	52	mm	100.000000	60	162
Frame#	Time	L_IAS			L_IPS			R_IPS			R_IAS			L_FTC			L_FLE			L_FME			L_FAX			L_TTC			L_FAL			L_TAM			L_FCC			L_FM1			L_FM2			L_FM5			R_FTC			R_FLE			R_FME			R_FAX			R_TTC			R_FAL			R_TAM			R_FCC			R_FM1			R_FM2			R_FM5			CV7			TV10			SXS			SJN			L_SIA			L_SRS			L_SAA			L_SAE			L_HLE			L_HME			L_UOA			L_RSP			L_UHE			L_HM2			L_HM5			R_SIA			R_SRS			R_SAA			R_SAE			R_HLE			R_HME			R_UOA			R_RSP			R_UHE			R_HM2			R_HM5			
		X1	Y1	Z1	X2	Y2	Z2	X3	Y3	Z3	X4	Y4	Z4	X5	Y5	Z5	X6	Y6	Z6	X7	Y7	Z7	X8	Y8	Z8	X9	Y9	Z9	X10	Y10	Z10	X11	Y11	Z11	X12	Y12	Z12	X13	Y13	Z13	X14	Y14	Z14	X15	Y15	Z15	X16	Y16	Z16	X17	Y17	Z17	X18	Y18	Z18	X19	Y19	Z19	X20	Y20	Z20	X21	Y21	Z21	X22	Y22	Z22	X23	Y23	Z23	X24	Y24	Z24	X25	Y25	Z25	X26	Y26	Z26	X27	Y27	Z27	X28	Y28	Z28	X29	Y29	Z29	X30	Y30	Z30	X31	Y31	Z31	X32	Y32	Z32	X33	Y33	Z33	X34	Y34	Z34	X35	Y35	Z35	X36	Y36	Z36	X37	Y37	Z37	X38	Y38	Z38	X39	Y39	Z39	X40	Y40	Z40	X41	Y41	Z41	X42	Y42	Z42	X43	Y43	Z43	X44	Y44	Z44	X45	Y45	Z45	X46	Y46	Z46	X47	Y47	Z47	X48	Y48	Z48	X49	Y49	Z49	X50	Y50	Z50	X51	Y51	Z51	X52	Y52	Z52	

61	0.6	600.6767578125001	890.8741455078127	-358.0572204589844	384.6934814453126	896.9805297851565	-276.5523986816407	393.8820800781251	904.9223632812502	-171.254135131836	612.4482421875001	888.7160644531252	-108.2424774169922	527.2070922851564	783.9107055664065	-414.4663696289064	676.2714843750001	442.9573974609376	-351.5555725097657	673.7324218750001	425.6372070312501	-228.2609405517579	674.2299804687501	382.8608398437501	-357.9614868164063	726.6369628906251	385.643768310547	-305.0575256347657	712.7562866210939	63.42722702026369	-316.2719116210938	736.1916503906251	73.47452545166017	-236.8022460937501	678.3956909179689	13.04741764068604	-261.3505249023438	850.773864746094	31.64141654968262	-259.5511779785157	846.4260253906252	40.24246215820313	-307.4570007324219	796.4717407226565	16.56823921203614	-343.5991821289063	508.9675598144532	797.5669555664065	-43.1318473815918	432.0516662597657	433.8070373535157	-99.02444458007815	422.5533142089845	417.6371154785157	-226.4217834472657	393.565155029297	388.7368164062501	-93.67774200439455	435.2134094238282	355.1885986328126	-137.6299438476563	205.3455047607422	116.8307876586914	-118.0549011230469	237.2908782958985	115.9244232177735	-199.4017639160157	147.5277252197266	96.43209075927737	-171.5639343261719	298.6284484863282	17.45465469360352	-190.5945129394532	298.7657470703126	31.0746078491211	-145.8556823730469	245.3377532958985	19.33530616760254	-96.00982666015628	490.2163391113282	1391.819213867188	-218.9895782470704	390.4765625000001	1153.046630859375	-227.247055053711	655.4218750000001	1057.101684570313	-248.7744903564454	602.8528442382814	1308.927612304688	-236.2530364990235	381.3972167968751	1202.368774414063	-309.2739562988282	423.9071350097657	1329.554077148438	-320.2061767578126	461.7074279785157	1334.44091796875	-385.914764404297	510.5696411132814	1340.838134765625	-403.4386596679689	423.3798217773439	1039.38720703125	-463.4254455566407	413.5440368652345	1034.144775390625	-386.0738220214845	396.9146118164064	1022.602478027344	-431.7432250976564	462.0238647460939	800.6054687500002	-454.434539794922	395.2047119140626	817.0674438476565	-493.819549560547	464.0207519531251	733.2753295898439	-464.4917297363282	377.1562500000001	759.1901855468751	-495.2521972656251	390.8709106445314	1194.408813476563	-144.4724578857422	435.6260681152345	1318.2919921875	-139.52734375	495.1995239257814	1318.097778320313	-71.71548461914064	544.0819091796876	1321.879516601563	-58.46071624755861	564.2302856445314	1006.313659667969	17.02933502197266	523.1310424804689	986.4533691406252	-40.63383483886719	539.8424072265626	969.9458618164065	2.975833654403687	706.8777465820314	826.302917480469	-16.73013496398926	668.0133056640626	810.9478149414065	29.47181129455567	759.9617919921876	762.6759033203126	-13.8606767654419	695.0679931640626	748.9093017578126	37.84792709350587	
62	0.61	612.8890380859376	892.0750122070315	-359.9031066894532	396.9141540527345	897.8021240234377	-277.6519775390626	406.872772216797	904.8281860351565	-172.0578918457032	625.1660156250001	888.3472900390627	-110.6271667480469	539.7885131835939	785.1822509765627	-416.0335388183595	689.0440673828126	443.5744934082032	-351.8638916015626	685.8512573242189	427.0365600585939	-228.8897857666016	686.4072875976564	383.4592285156251	-358.2238159179688	737.3453369140626	385.1277465820314	-304.7480163574219	715.0010986328126	63.12058639526369	-315.9160461425782	737.5278320312501	72.2267532348633	-236.0659790039063	678.2647705078126	13.38685989379883	-261.6667785644532	851.707458496094	27.39341354370118	-258.4395446777344	848.3864746093752	36.50820922851563	-306.9198303222657	796.865905761719	14.9860315322876	-343.5896301269532	522.3509521484376	796.3266601562502	-44.7605323791504	448.7189331054689	432.3909606933595	-99.39357757568362	440.0689392089845	415.0455932617189	-226.6012725830079	409.2119445800782	388.3398437500001	-93.83658599853517	450.3828125000001	353.3663635253907	-137.0948791503907	212.6347351074219	122.7007293701172	-116.8569793701172	245.0793151855469	119.7076950073242	-197.6595916748047	155.1080474853516	105.4135513305664	-171.2503204345703	298.4520568847657	17.75545120239258	-190.792724609375	299.5426330566407	31.12630271911622	-146.1653594970703	246.5770263671876	21.69215393066407	-96.07857513427737	502.2182617187501	1392.3076171875	-220.2849426269532	402.8625488281251	1153.420043945313	-228.1307678222657	668.5871582031251	1057.756713867188	-251.0432434082032	614.9066772460939	1309.516967773438	-237.9494018554688	393.4332580566407	1202.650756835938	-310.1810913085938	435.6507873535157	1329.925048828125	-321.3030395507813	473.2779235839845	1334.898315429688	-387.1178588867189	522.0247802734376	1341.410888671875	-404.8113403320314	435.0737609863282	1039.92822265625	-464.8365478515626	425.6512145996095	1034.53955078125	-387.4603881835939	408.761932373047	1023.1171875	-433.0510253906251	473.2615356445314	801.1079711914065	-456.3546447753907	406.3797912597657	817.8552246093752	-495.6180419921876	474.8015747070314	733.6833496093751	-466.3398742675782	388.1169738769532	760.1960449218751	-497.1595458984376	403.5486755371095	1194.7412109375	-145.3805084228516	447.9947204589845	1318.75146484375	-140.5957794189453	507.7955322265626	1318.626586914063	-73.0206756591797	556.7680053710939	1322.33251953125	-59.97293090820314	575.1108398437501	1006.527221679688	14.94393920898438	534.1982421875001	987.0185546875002	-42.95243453979493	550.8422241210939	970.2219238281252	0.7202255129814149	717.1044311523439	825.9013671875002	-18.64131927490235	677.9235839843751	810.5695800781252	27.32683944702149	769.9260864257815	762.0982666015626	-15.71940422058106	704.6842041015626	748.4025878906251	35.6258659362793	
63	0.62	624.9649658203126	893.5488281250002	-361.8257141113282	409.0642395019532	898.7250976562502	-278.7129211425782	419.7861633300782	904.7949829101565	-172.8329620361328	637.7704467773439	888.062683105469	-113.0870666503907	552.1809692382814	786.608825683594	-417.6505126953126	701.2038574218751	444.120086669922	-352.2312011718751	697.1917114257814	428.3736267089845	-229.5194702148438	697.9408569335939	384.0220031738282	-358.5603637695313	747.4473876953126	384.6135559082032	-304.4900817871094	716.9944458007814	62.99971389770509	-315.6438903808594	738.6294555664064	71.28424072265626	-235.4310760498047	678.1651611328126	13.7493896484375	-262.0364685058594	852.4439697265627	23.95141792297364	-257.4971923828126	850.0994262695315	33.55024719238282	-306.5576782226563	797.1751098632815	13.97042274475098	-343.7496643066407	535.7470703125001	795.0352783203127	-46.39901733398438	466.2691955566407	430.8795471191407	-99.74442291259768	458.6369934082032	412.2686767578126	-226.8026428222657	425.8821411132814	387.9006347656251	-93.95876312255861	466.5209350585939	351.5999145507813	-136.4605407714844	221.0749053955079	128.991683959961	-115.7786560058594	254.004379272461	123.7401733398438	-195.9934234619141	164.0132446289063	114.8474884033203	-171.1482696533203	298.9732971191407	18.49032783508301	-190.8630981445313	300.9637145996094	31.47285652160645	-146.3714599609375	248.5190734863282	24.80560493469239	-96.12384033203128	514.2207031250001	1392.935424804688	-221.5448608398438	415.2203674316407	1153.976196289063	-228.9137573242188	681.6890869140626	1058.539306640625	-253.3879699707032	626.9459838867189	1310.229370117188	-239.6116180419922	405.5003051757814	1203.086669921875	-311.0696411132813	447.404754638672	1330.4423828125	-322.3656921386719	484.8530883789064	1335.500122070313	-388.292938232422	533.4807128906251	1342.150756835938	-406.1543884277345	446.8999023437501	1040.608276367188	-466.2969970703126	437.8935546875001	1035.046264648438	-388.8941040039064	420.7496948242189	1023.721496582031	-434.430145263672	485.0336303710939	801.8081665039065	-458.4035644531251	418.045623779297	818.7424926757815	-497.4647521972657	486.2883605957032	734.3145141601564	-468.3897705078126	399.673553466797	761.2174072265626	-499.1069946289064	416.2535095214845	1195.241943359375	-146.1939697265625	460.344207763672	1319.39013671875	-141.6117553710938	520.4478149414064	1319.32763671875	-74.27039337158205	569.5183715820314	1322.93701171875	-61.46938705444337	585.9189453125001	1006.870056152344	12.83608531951905	545.1402587890626	987.7623291015627	-45.30426406860352	561.7612915039064	970.6479492187502	-1.559283971786499	726.9740600585939	825.4267578125002	-20.51336288452149	687.4467163085939	810.1965942382815	25.21936988830567	779.397155761719	761.3485107421876	-17.56178665161133	713.8093261718751	747.8594360351564	33.45767211914063	
64	0.63	636.8976440429689	895.2242431640627	-363.7901916503907	421.1326904296876	899.7202758789065	-279.7757568359376	432.5572204589845	904.8255004882815	-173.629623413086	650.2180786132814	887.864196777344	-115.5594329833985	564.3639526367189	788.135925292969	-419.3129882812501	712.5728759765626	444.5291748046876	-352.6661376953126	707.6179809570314	429.5671997070314	-230.1433105468751	708.6343994140626	384.477264404297	-358.9627075195313	756.8454589843751	384.0635375976564	-304.3154602050782	718.7630615234376	63.02503204345705	-315.4264526367188	739.5626220703126	70.62277221679689	-234.8809051513672	678.1613159179689	14.10642337799073	-262.4075927734376	853.0583496093752	21.33177185058594	-256.7280273437501	851.6013793945315	31.36272430419923	-306.3516540527344	797.4639282226565	13.45820045471192	-344.0270690917969	549.0758666992189	793.736999511719	-48.0493621826172	484.6306762695314	429.3244934082032	-100.0796279907227	478.1972045898439	409.391326904297	-227.0318603515626	443.5411987304689	387.4541625976564	-94.05233764648439	483.5952453613282	349.9511413574219	-135.7527618408203	230.7165679931641	135.6495819091797	-114.8679580688477	264.1072387695313	128.0163726806641	-194.4603729248047	174.2657775878907	124.5855178833008	-171.2640686035157	300.5233154296876	19.73449134826661	-190.7124176025391	303.3021240234376	32.21219635009766	-146.3885498046875	251.4117279052735	28.73864173889161	-96.10479736328128	526.1975097656251	1393.6796875	-222.7684631347657	427.5172729492189	1154.68701171875	-229.6327056884766	694.6516723632814	1059.420288085938	-255.7655639648438	638.9454956054689	1311.043334960938	-241.2171478271485	417.5780029296876	1203.655395507813	-311.9658813476563	459.1602478027345	1331.086181640625	-323.4074401855469	496.4306640625001	1336.226196289063	-389.4486083984376	544.9457397460939	1343.033203125	-407.4641418457032	458.8490600585939	1041.405883789063	-467.809539794922	450.2384033203126	1035.646728515625	-390.3797912597657	432.8611755371095	1024.397583007813	-435.8879699707032	497.3290100097657	802.683044433594	-460.5630187988282	430.2007751464845	819.6998291015627	-499.3576965332032	498.4799804687501	735.1480712890626	-470.6232910156251	411.8228759765626	762.2180786132814	-501.0859680175782	428.9261169433595	1195.8857421875	-146.9468383789063	472.6323852539064	1320.176025390625	-142.5911865234375	533.0931396484376	1320.164916992188	-75.46652221679689	582.2614135742189	1323.662719726563	-62.93701553344728	596.6588134765626	1007.316101074219	10.72183132171631	555.9491577148439	988.652282714844	-47.66294097900391	572.5953979492189	971.2001953125002	-3.842691183090211	736.5042114257814	824.872497558594	-22.34166717529297	696.6152954101564	809.8256835937502	23.16330909729004	788.393737792969	760.4234619140626	-19.3930892944336	722.4782104492189	747.2787475585939	31.35741806030274	
